<svg version="1.1" id="Layer_1" xmlns="http://www.w3.org/2000/svg" xmlns:xlink="http://www.w3.org/1999/xlink" x="0px" y="0px"
	 width="100%" viewBox="0 0 500 500" enable-background="new 0 0 500 500" xml:space="preserve">
<path fill="#217FC1" opacity="1.000000" stroke="none" 
	d="
M1.000000,476.000000 
	C1.000000,463.979095 1.000000,451.958221 1.468632,439.468658 
	C18.819883,438.013550 35.762680,437.618622 52.571667,435.908447 
	C81.081520,433.007812 108.907181,426.510803 136.191238,417.767212 
	C161.744904,409.578125 186.448227,399.282074 209.746292,385.978973 
	C224.874863,377.340607 239.436478,367.698395 254.134384,358.321411 
	C261.379517,353.699158 268.357758,348.658569 275.722473,343.985107 
	C285.040894,351.962158 294.093628,359.761353 302.985626,367.886383 
	C298.515045,371.829895 294.494049,375.879395 289.844574,378.989166 
	C271.347107,391.360748 253.173279,404.349487 233.882004,415.362152 
	C215.742218,425.717468 196.711639,434.750122 177.414246,442.782013 
	C150.981110,453.783813 123.528221,462.042023 95.324409,467.298187 
	C80.499443,470.061035 65.516876,472.062958 50.545673,473.928558 
	C39.369041,475.321320 28.109631,476.177246 16.861065,476.809113 
	C11.605777,477.104309 6.288939,476.303864 1.000000,476.000000 
z"/>
<path fill="#1C77BE" opacity="1.000000" stroke="none" 
	d="
M1.000000,476.468689 
	C6.288939,476.303864 11.605777,477.104309 16.861065,476.809113 
	C28.109631,476.177246 39.369041,475.321320 50.545673,473.928558 
	C65.516876,472.062958 80.499443,470.061035 95.324409,467.298187 
	C123.528221,462.042023 150.981110,453.783813 177.414246,442.782013 
	C196.711639,434.750122 215.742218,425.717468 233.882004,415.362152 
	C253.173279,404.349487 271.347107,391.360748 289.844574,378.989166 
	C294.494049,375.879395 298.515045,371.829895 303.318481,368.020142 
	C313.882568,372.856964 323.953033,377.885834 334.000092,383.281555 
	C333.195221,384.840454 332.633911,386.291077 331.592468,387.177948 
	C327.928406,390.298279 324.204437,393.369263 320.314880,396.200165 
	C303.126648,408.710266 286.461517,422.066467 268.502197,433.359344 
	C242.716690,449.573364 215.438644,463.170990 186.954086,474.210175 
	C162.067749,483.854919 136.639618,491.638733 110.585747,497.438812 
	C108.242363,497.960480 106.188370,499.782074 104.000000,501.000000 
	C69.784431,501.000000 35.568863,501.000000 1.000000,501.000000 
	C1.000000,492.982574 1.000000,484.959961 1.000000,476.468689 
z"/>
<path fill="#2688C4" opacity="1.000000" stroke="none" 
	d="
M275.456757,343.807281 
	C268.357758,348.658569 261.379517,353.699158 254.134384,358.321411 
	C239.436478,367.698395 224.874863,377.340607 209.746292,385.978973 
	C186.448227,399.282074 161.744904,409.578125 136.191238,417.767212 
	C108.907181,426.510803 81.081520,433.007812 52.571667,435.908447 
	C35.762680,437.618622 18.819883,438.013550 1.468632,439.000000 
	C1.000000,422.312439 1.000000,405.624878 1.408738,388.548431 
	C6.109029,388.372803 10.435181,389.039581 14.685722,388.715302 
	C28.065212,387.694550 41.416309,386.301666 55.174797,385.225433 
	C79.709618,385.422241 103.848511,385.535645 127.986122,385.407410 
	C133.952881,385.375732 139.958588,384.871124 145.873001,384.053131 
	C185.829788,378.527069 216.112778,358.052002 237.124298,323.905243 
	C241.847412,316.229492 245.104050,307.651367 249.180710,299.187805 
	C255.047638,315.650177 264.114838,330.414032 275.456757,343.807281 
z"/>
<path fill="#1D78BF" opacity="1.000000" stroke="none" 
	d="
M474.000000,1.000000 
	C482.941681,1.000000 491.883392,1.000000 501.000000,1.000000 
	C501.000000,14.353801 501.000000,27.708242 500.655701,41.667736 
	C499.503052,47.242905 498.780121,52.228714 497.871368,57.180416 
	C494.041382,78.050369 490.830261,99.063103 486.140411,119.739540 
	C478.128052,155.063889 465.695038,188.968414 449.200989,221.198288 
	C439.982758,239.211014 429.764526,256.788574 418.875488,273.846375 
	C409.526947,288.491028 398.594360,302.125305 388.343262,316.192566 
	C384.255402,321.802216 380.116577,327.374725 375.566742,333.021820 
	C366.756287,331.024658 358.380005,328.969818 350.069244,326.573608 
	C352.649200,322.768524 355.075165,319.236298 357.693207,315.852692 
	C370.371399,299.466980 384.167236,283.823395 395.529419,266.574615 
	C408.286865,247.207672 418.825409,226.382080 430.443726,206.257156 
	C431.601349,204.251923 433.552673,202.704895 435.503784,201.056351 
	C436.501373,200.828110 437.450165,200.649536 437.713867,200.125946 
	C445.526062,184.613892 453.270203,169.067612 461.095612,153.385590 
	C457.889130,151.083633 454.948334,148.972412 452.031952,146.479614 
	C455.584808,132.943848 459.677734,119.909485 462.501434,106.605736 
	C466.181671,89.266418 469.804810,71.815521 471.695587,54.223801 
	C473.589417,36.603519 473.320801,18.750828 474.000000,1.000000 
z"/>
<path fill="#1871BC" opacity="1.000000" stroke="none" 
	d="
M104.468658,501.000000 
	C106.188370,499.782074 108.242363,497.960480 110.585747,497.438812 
	C136.639618,491.638733 162.067749,483.854919 186.954086,474.210175 
	C215.438644,463.170990 242.716690,449.573364 268.502197,433.359344 
	C286.461517,422.066467 303.126648,408.710266 320.314880,396.200165 
	C324.204437,393.369263 327.928406,390.298279 331.592468,387.177948 
	C332.633911,386.291077 333.195221,384.840454 334.389954,383.292358 
	C345.869354,385.311890 356.935455,387.687378 367.930969,390.395752 
	C361.614929,396.623230 355.580200,402.761902 349.085968,408.368225 
	C326.410187,427.943726 302.197876,445.430725 276.458893,460.769775 
	C254.155457,474.061462 231.194366,486.045105 207.021561,495.645447 
	C204.099731,496.805908 201.662079,499.185486 199.000000,501.000000 
	C167.645767,501.000000 136.291550,501.000000 104.468658,501.000000 
z"/>
<path fill="#4BC0DA" opacity="1.000000" stroke="none" 
	d="
M1.000000,178.000000 
	C1.000000,164.645767 1.000000,151.291550 1.465520,137.468658 
	C8.885712,136.517197 15.940981,136.619720 22.776707,135.444855 
	C45.797485,131.488220 66.629883,122.445145 85.153610,107.994987 
	C97.110352,98.667664 107.158257,87.610153 115.334335,75.038963 
	C129.918091,52.615616 136.470108,27.526062 138.000000,1.000000 
	C145.354248,1.000000 152.708496,1.000000 160.531372,1.462242 
	C160.691101,6.384161 160.267731,10.839359 160.093033,15.304288 
	C159.326187,34.903198 153.629410,53.363712 145.198547,70.699791 
	C133.894394,93.944191 118.265900,114.060364 96.850784,129.212204 
	C95.148087,130.416916 94.268738,132.785324 92.544556,134.697876 
	C79.759178,134.782791 67.436020,134.782791 54.614479,134.782791 
	C54.614479,147.532776 54.614479,159.274155 54.229885,171.023987 
	C36.452408,175.040344 19.077177,179.182114 1.000000,178.000000 
z"/>
<path fill="#1A74BD" opacity="1.000000" stroke="none" 
	d="
M376.000946,332.964142 
	C380.116577,327.374725 384.255402,321.802216 388.343262,316.192566 
	C398.594360,302.125305 409.526947,288.491028 418.875488,273.846375 
	C429.764526,256.788574 439.982758,239.211014 449.200989,221.198288 
	C465.695038,188.968414 478.128052,155.063889 486.140411,119.739540 
	C490.830261,99.063103 494.041382,78.050369 497.871368,57.180416 
	C498.780121,52.228714 499.503052,47.242905 500.655701,42.136395 
	C501.000000,77.020897 501.000000,112.041786 500.669189,147.645416 
	C498.598785,152.298340 496.754211,156.327332 495.137360,160.445709 
	C487.192902,180.681427 480.256470,201.380081 471.132843,221.066528 
	C462.289124,240.148926 451.864075,258.591614 440.926971,276.581696 
	C431.894531,291.438782 421.094879,305.220978 411.090698,319.488129 
	C408.081787,323.779175 405.114441,328.099365 401.812927,332.657104 
	C399.529297,333.130035 397.557495,333.565125 395.592865,333.534973 
	C389.060852,333.434784 382.531372,333.167419 376.000946,332.964142 
z"/>
<path fill="#1064B7" opacity="1.000000" stroke="none" 
	d="
M323.000000,501.000000 
	C311.979095,501.000000 300.958221,501.000000 289.565125,500.674622 
	C295.711761,496.110291 302.415497,492.127808 308.715179,487.584991 
	C328.787781,473.109985 348.892212,458.666809 368.612610,443.720856 
	C378.250763,436.416138 387.434692,428.409363 396.158905,420.027832 
	C406.702362,409.898499 416.590759,399.082275 426.600861,388.411469 
	C427.518890,387.432861 427.264740,385.354645 427.837830,383.538483 
	C439.795502,379.171722 451.174988,374.484222 461.008606,367.035919 
	C457.802338,360.259064 454.902252,354.129303 452.325928,347.904053 
	C458.729919,339.599182 465.230347,331.663544 470.795319,323.118683 
	C479.997803,308.988647 488.567291,294.447174 497.501862,280.140442 
	C498.299347,278.863464 499.816864,278.036163 501.000000,277.000000 
	C501.000000,292.020905 501.000000,307.041779 500.676880,322.625214 
	C497.365417,326.925903 494.284882,330.594574 491.404572,334.414215 
	C478.625885,351.360352 466.690674,369.020142 452.945831,385.138794 
	C438.635284,401.920959 422.993408,417.636200 407.185944,433.051178 
	C395.333893,444.608978 382.637329,455.378052 369.690613,465.713989 
	C357.252716,475.643829 343.976013,484.519501 331.145569,493.963928 
	C328.264862,496.084442 325.706696,498.643097 323.000000,501.000000 
z"/>
<path fill="#4DC6DC" opacity="1.000000" stroke="none" 
	d="
M137.531342,1.000000 
	C136.470108,27.526062 129.918091,52.615616 115.334335,75.038963 
	C107.158257,87.610153 97.110352,98.667664 85.153610,107.994987 
	C66.629883,122.445145 45.797485,131.488220 22.776707,135.444855 
	C15.940981,136.619720 8.885712,136.517197 1.465520,137.000000 
	C1.000000,128.979095 1.000000,120.958199 1.459942,112.468651 
	C62.257019,112.341232 112.874252,61.224117 112.000000,1.000000 
	C120.354233,1.000000 128.708466,1.000000 137.531342,1.000000 
z"/>
<path fill="#40B1D4" opacity="1.000000" stroke="none" 
	d="
M209.000000,1.000000 
	C219.020889,1.000000 229.041794,1.000000 239.531342,1.464301 
	C240.091263,18.937078 238.319000,35.832264 234.522430,52.327877 
	C227.095062,84.598808 214.398239,114.655815 194.298096,141.293335 
	C192.310364,143.927567 190.765900,146.896286 188.688629,149.610413 
	C178.559891,145.724167 168.758209,141.937271 158.982498,137.778687 
	C160.127823,135.416107 160.989319,133.216370 162.406357,131.466522 
	C176.827545,113.658234 188.068298,94.137123 195.879730,72.510712 
	C203.157486,52.361736 207.648300,31.803198 208.038391,10.360662 
	C208.095230,7.235644 208.666672,4.119987 209.000000,1.000000 
z"/>
<path fill="#36A1CE" opacity="1.000000" stroke="none" 
	d="
M286.000000,1.000000 
	C293.354248,1.000000 300.708496,1.000000 308.531372,1.468566 
	C309.419342,23.614347 306.929047,45.013290 302.404510,66.162872 
	C297.834137,87.526649 291.413574,108.438011 281.733032,127.982109 
	C273.278534,145.050949 263.193359,161.333878 253.400894,177.708221 
	C249.087219,184.921295 243.713699,191.500549 238.544098,198.156219 
	C233.317932,191.051163 228.369034,184.157486 223.753769,177.092529 
	C225.025162,175.997299 226.180542,175.211472 226.867813,174.128571 
	C235.919266,159.866394 245.297333,145.791580 253.810333,131.212463 
	C265.206207,111.696266 272.394897,90.348022 277.667053,68.527695 
	C283.009399,46.417019 286.139984,23.868538 286.000000,1.000000 
z"/>
<path fill="#3BAAD1" opacity="1.000000" stroke="none" 
	d="
M189.015701,149.709763 
	C190.765900,146.896286 192.310364,143.927567 194.298096,141.293335 
	C214.398239,114.655815 227.095062,84.598808 234.522430,52.327877 
	C238.319000,35.832264 240.091263,18.937078 240.000000,1.464301 
	C249.020889,1.000000 258.041779,1.000000 267.531342,1.464301 
	C267.268829,13.179774 267.208160,24.524218 265.658966,35.661606 
	C262.910431,55.421444 258.450470,74.846420 251.314240,93.573868 
	C244.549988,111.325104 236.197693,128.261520 225.877106,144.222534 
	C221.210464,151.439590 216.630447,158.712662 211.698898,165.841583 
	C203.929688,160.385162 196.472687,155.047455 189.015701,149.709763 
z"/>
<path fill="#156CBA" opacity="1.000000" stroke="none" 
	d="
M199.468658,501.000000 
	C201.662079,499.185486 204.099731,496.805908 207.021561,495.645447 
	C231.194366,486.045105 254.155457,474.061462 276.458893,460.769775 
	C302.197876,445.430725 326.410187,427.943726 349.085968,408.368225 
	C355.580200,402.761902 361.614929,396.623230 368.396973,390.344604 
	C379.957153,389.438904 390.980652,388.917267 401.980591,388.732025 
	C400.848175,390.668732 399.987671,392.538208 398.591095,393.826630 
	C387.623260,403.944916 376.440704,413.832062 365.539673,424.020844 
	C348.037109,440.379913 328.683807,454.369537 308.675354,467.329773 
	C292.127930,478.048187 274.619568,487.280273 257.597473,497.273926 
	C256.163422,498.115845 255.188324,499.739502 254.000000,501.000000 
	C235.979111,501.000000 217.958206,501.000000 199.468658,501.000000 
z"/>
<path fill="#217FC1" opacity="1.000000" stroke="none" 
	d="
M473.531372,1.000000 
	C473.320801,18.750828 473.589417,36.603519 471.695587,54.223801 
	C469.804810,71.815521 466.181671,89.266418 462.501434,106.605736 
	C459.677734,119.909485 455.584808,132.943848 451.688843,146.417740 
	C442.516144,143.246078 433.710938,139.754700 424.926208,135.818756 
	C425.458252,132.270996 425.794128,129.126572 426.511078,126.071602 
	C430.108856,110.741470 434.184875,95.513329 437.383972,80.102188 
	C442.794159,54.039642 444.360870,27.551388 445.000000,1.000000 
	C454.354218,1.000000 463.708466,1.000000 473.531372,1.000000 
z"/>
<path fill="#0958B2" opacity="1.000000" stroke="none" 
	d="
M501.000000,375.000000 
	C501.000000,389.020905 501.000000,403.041779 500.665833,417.601715 
	C492.077026,427.138763 484.081116,436.392151 475.509583,445.077454 
	C461.201660,459.575409 446.555542,473.740723 431.986542,487.979248 
	C427.432404,492.430054 422.668121,496.665833 418.000000,501.000000 
	C403.979095,501.000000 389.958221,501.000000 375.536011,500.662659 
	C376.518494,498.705841 377.704712,496.849762 379.316833,495.503784 
	C394.225189,483.057098 409.853119,471.390381 424.023682,458.160126 
	C448.341644,435.455841 471.158783,411.250519 491.322510,384.661469 
	C494.050812,381.063721 497.750244,378.202362 501.000000,375.000000 
z"/>
<path fill="#50CBDE" opacity="1.000000" stroke="none" 
	d="
M111.531349,1.000000 
	C112.874252,61.224117 62.257019,112.341232 1.459942,112.000000 
	C1.000000,103.979103 1.000000,95.958199 1.459488,87.468651 
	C48.381241,86.916054 87.282829,48.743179 87.000000,1.000000 
	C95.020897,1.000000 103.041801,1.000000 111.531349,1.000000 
z"/>
<path fill="#44B7D6" opacity="1.000000" stroke="none" 
	d="
M208.531342,1.000000 
	C208.666672,4.119987 208.095230,7.235644 208.038391,10.360662 
	C207.648300,31.803198 203.157486,52.361736 195.879730,72.510712 
	C188.068298,94.137123 176.827545,113.658234 162.406357,131.466522 
	C160.989319,133.216370 160.127823,135.416107 158.565918,137.782288 
	C147.750641,136.977341 137.377899,135.797134 127.030670,134.280060 
	C128.160706,132.338943 129.118546,130.605377 130.397247,129.154633 
	C134.240173,124.794647 138.471527,120.754700 142.085480,116.218727 
	C168.930878,82.524284 182.652969,44.125946 183.000000,1.000000 
	C191.354233,1.000000 199.708466,1.000000 208.531342,1.000000 
z"/>
<path fill="#1870BB" opacity="1.000000" stroke="none" 
	d="
M402.128113,332.406189 
	C405.114441,328.099365 408.081787,323.779175 411.090698,319.488129 
	C421.094879,305.220978 431.894531,291.438782 440.926971,276.581696 
	C451.864075,258.591614 462.289124,240.148926 471.132843,221.066528 
	C480.256470,201.380081 487.192902,180.681427 495.137360,160.445709 
	C496.754211,156.327332 498.598785,152.298340 500.669189,148.114075 
	C501.000000,169.687561 501.000000,191.375122 500.655731,213.606857 
	C497.525330,219.314911 494.752045,224.485764 491.950806,229.641449 
	C481.630890,248.635284 471.598389,267.793762 460.868835,286.553497 
	C454.034454,298.502899 446.161438,309.858307 438.481781,321.239471 
	C437.135925,317.904724 435.568085,319.164551 433.762787,320.356049 
	C424.121582,326.719635 413.544373,330.676849 402.128113,332.406189 
z"/>
<path fill="#0E60B5" opacity="1.000000" stroke="none" 
	d="
M323.468689,501.000000 
	C325.706696,498.643097 328.264862,496.084442 331.145569,493.963928 
	C343.976013,484.519501 357.252716,475.643829 369.690613,465.713989 
	C382.637329,455.378052 395.333893,444.608978 407.185944,433.051178 
	C422.993408,417.636200 438.635284,401.920959 452.945831,385.138794 
	C466.690674,369.020142 478.625885,351.360352 491.404572,334.414215 
	C494.284882,330.594574 497.365417,326.925903 500.676880,323.093872 
	C501.000000,332.354218 501.000000,341.708466 500.643799,351.557434 
	C499.565643,352.412323 498.604401,352.586823 498.158905,353.161316 
	C493.885681,358.671417 489.867157,364.386200 485.455750,369.780701 
	C473.891968,383.921448 462.473297,398.200348 450.399445,411.897644 
	C442.399323,420.973541 433.624268,429.416626 424.742096,437.653381 
	C410.006073,451.318604 395.145447,464.871979 379.860870,477.914124 
	C371.555389,485.001068 362.236206,490.894745 353.461639,497.443695 
	C352.366425,498.261139 351.807465,499.797028 351.000000,501.000000 
	C341.979095,501.000000 332.958221,501.000000 323.468689,501.000000 
z"/>
<path fill="#2585C3" opacity="1.000000" stroke="none" 
	d="
M444.531342,1.000000 
	C444.360870,27.551388 442.794159,54.039642 437.383972,80.102188 
	C434.184875,95.513329 430.108856,110.741470 426.511078,126.071602 
	C425.794128,129.126572 425.458252,132.270996 424.538513,135.741699 
	C415.421448,134.355728 406.712494,132.602203 398.078186,130.489471 
	C411.422607,88.109573 419.262390,45.254280 418.000000,1.000000 
	C426.687561,1.000000 435.375122,1.000000 444.531342,1.000000 
z"/>
<path fill="#46BCD8" opacity="1.000000" stroke="none" 
	d="
M182.531433,1.000000 
	C182.652969,44.125946 168.930878,82.524284 142.085480,116.218727 
	C138.471527,120.754700 134.240173,124.794647 130.397247,129.154633 
	C129.118546,130.605377 128.160706,132.338943 126.568436,134.364136 
	C115.056061,134.727692 104.031410,134.670319 93.006760,134.612946 
	C94.268738,132.785324 95.148087,130.416916 96.850784,129.212204 
	C118.265900,114.060364 133.894394,93.944191 145.198547,70.699791 
	C153.629410,53.363712 159.326187,34.903198 160.093033,15.304288 
	C160.267731,10.839359 160.691101,6.384161 161.000000,1.462242 
	C168.020950,1.000000 175.041901,1.000000 182.531433,1.000000 
z"/>
<path fill="#0654B1" opacity="1.000000" stroke="none" 
	d="
M418.468658,501.000000 
	C422.668121,496.665833 427.432404,492.430054 431.986542,487.979248 
	C446.555542,473.740723 461.201660,459.575409 475.509583,445.077454 
	C484.081116,436.392151 492.077026,427.138763 500.665833,418.070374 
	C501.000000,445.593567 501.000000,473.187103 501.000000,501.000000 
	C473.646149,501.000000 446.291748,501.000000 418.468658,501.000000 
z"/>
<path fill="#38A5D0" opacity="1.000000" stroke="none" 
	d="
M212.011124,165.960297 
	C216.630447,158.712662 221.210464,151.439590 225.877106,144.222534 
	C236.197693,128.261520 244.549988,111.325104 251.314240,93.573868 
	C258.450470,74.846420 262.910431,55.421444 265.658966,35.661606 
	C267.208160,24.524218 267.268829,13.179774 268.000000,1.464301 
	C273.688049,1.000000 279.376068,1.000000 285.532043,1.000000 
	C286.139984,23.868538 283.009399,46.417019 277.667053,68.527695 
	C272.394897,90.348022 265.206207,111.696266 253.810333,131.212463 
	C245.297333,145.791580 235.919266,159.866394 226.867813,174.128571 
	C226.180542,175.211472 225.025162,175.997299 223.489212,176.922638 
	C219.264404,173.269455 215.637756,169.614868 212.011124,165.960297 
z"/>
<path fill="#1267B8" opacity="1.000000" stroke="none" 
	d="
M254.468658,501.000000 
	C255.188324,499.739502 256.163422,498.115845 257.597473,497.273926 
	C274.619568,487.280273 292.127930,478.048187 308.675354,467.329773 
	C328.683807,454.369537 348.037109,440.379913 365.539673,424.020844 
	C376.440704,413.832062 387.623260,403.944916 398.591095,393.826630 
	C399.987671,392.538208 400.848175,390.668732 402.403687,388.601624 
	C411.085205,386.685547 419.320068,385.236298 427.554932,383.787048 
	C427.264740,385.354645 427.518890,387.432861 426.600861,388.411469 
	C416.590759,399.082275 406.702362,409.898499 396.158905,420.027832 
	C387.434692,428.409363 378.250763,436.416138 368.612610,443.720856 
	C348.892212,458.666809 328.787781,473.109985 308.715179,487.584991 
	C302.415497,492.127808 295.711761,496.110291 289.096497,500.674622 
	C277.645782,501.000000 266.291534,501.000000 254.468658,501.000000 
z"/>
<path fill="#146AB9" opacity="1.000000" stroke="none" 
	d="
M438.754120,321.480042 
	C446.161438,309.858307 454.034454,298.502899 460.868835,286.553497 
	C471.598389,267.793762 481.630890,248.635284 491.950806,229.641449 
	C494.752045,224.485764 497.525330,219.314911 500.655731,214.075516 
	C501.000000,234.687561 501.000000,255.375122 501.000000,276.531342 
	C499.816864,278.036163 498.299347,278.863464 497.501862,280.140442 
	C488.567291,294.447174 479.997803,308.988647 470.795319,323.118683 
	C465.230347,331.663544 458.729919,339.599182 452.068604,347.676453 
	C447.243011,338.856232 442.998566,330.168152 438.754120,321.480042 
z"/>
<path fill="#56D5E2" opacity="1.000000" stroke="none" 
	d="
M1.000000,62.000000 
	C1.000000,41.739254 1.000000,21.478512 1.000000,1.000000 
	C21.353710,1.000000 41.708195,1.000000 62.504341,1.415269 
	C62.636566,3.628103 62.249588,5.416236 62.029598,7.224682 
	C59.628521,26.962934 50.968166,42.823048 33.520897,53.215664 
	C23.511616,59.177773 12.983600,63.305698 1.000000,62.000000 
z"/>
<path fill="#42B5D5" opacity="1.000000" stroke="none" 
	d="
M1.000000,178.468658 
	C19.077177,179.182114 36.452408,175.040344 54.305084,171.486206 
	C54.713299,190.297485 54.661716,208.654999 54.211685,227.014923 
	C52.500107,227.189270 51.189339,227.382278 49.873478,227.529861 
	C33.582748,229.357086 17.291279,231.177689 1.000000,233.000000 
	C1.000000,214.979111 1.000000,196.958206 1.000000,178.468658 
z"/>
<path fill="#3BA9D1" opacity="1.000000" stroke="none" 
	d="
M1.000000,233.468658 
	C17.291279,231.177689 33.582748,229.357086 49.873478,227.529861 
	C51.189339,227.382278 52.500107,227.189270 54.289444,227.476990 
	C54.712460,245.628922 54.659267,263.321167 54.223324,281.048462 
	C36.227051,282.722321 18.613527,284.361176 1.000001,286.000000 
	C1.000000,268.645782 1.000000,251.291550 1.000000,233.468658 
z"/>
<path fill="#53D0E0" opacity="1.000000" stroke="none" 
	d="
M1.000000,62.468651 
	C12.983600,63.305698 23.511616,59.177773 33.520897,53.215664 
	C50.968166,42.823048 59.628521,26.962934 62.029598,7.224682 
	C62.249588,5.416236 62.636566,3.628103 62.973000,1.415269 
	C70.687576,1.000000 78.375153,1.000000 86.531364,1.000000 
	C87.282829,48.743179 48.381241,86.916054 1.459488,87.000000 
	C1.000000,78.979095 1.000000,70.958199 1.000000,62.468651 
z"/>
<path fill="#2D93C9" opacity="1.000000" stroke="none" 
	d="
M54.778400,385.052826 
	C41.416309,386.301666 28.065212,387.694550 14.685722,388.715302 
	C10.435181,389.039581 6.109029,388.372803 1.408738,388.079773 
	C1.000000,371.312439 1.000000,354.624878 1.468566,337.468811 
	C8.374928,336.897003 14.842994,337.151947 21.243818,336.611115 
	C32.387611,335.669525 43.489929,334.237061 54.690407,333.472107 
	C54.773590,350.973511 54.775997,368.013153 54.778400,385.052826 
z"/>
<path fill="#349DCD" opacity="1.000000" stroke="none" 
	d="
M54.609631,333.010345 
	C43.489929,334.237061 32.387611,335.669525 21.243818,336.611115 
	C14.842994,337.151947 8.374928,336.897003 1.468566,337.000122 
	C1.000000,320.312439 1.000000,303.624878 1.000001,286.468689 
	C18.613527,284.361176 36.227051,282.722321 54.302238,281.510193 
	C54.712475,298.961426 54.661053,315.985870 54.609631,333.010345 
z"/>
<path fill="#0C5DB4" opacity="1.000000" stroke="none" 
	d="
M351.468628,501.000000 
	C351.807465,499.797028 352.366425,498.261139 353.461639,497.443695 
	C362.236206,490.894745 371.555389,485.001068 379.860870,477.914124 
	C395.145447,464.871979 410.006073,451.318604 424.742096,437.653381 
	C433.624268,429.416626 442.399323,420.973541 450.399445,411.897644 
	C462.473297,398.200348 473.891968,383.921448 485.455750,369.780701 
	C489.867157,364.386200 493.885681,358.671417 498.158905,353.161316 
	C498.604401,352.586823 499.565643,352.412323 500.643799,352.026123 
	C501.000000,359.354248 501.000000,366.708496 501.000000,374.531372 
	C497.750244,378.202362 494.050812,381.063721 491.322510,384.661469 
	C471.158783,411.250519 448.341644,435.455841 424.023682,458.160126 
	C409.853119,471.390381 394.225189,483.057098 379.316833,495.503784 
	C377.704712,496.849762 376.518494,498.705841 375.067383,500.662659 
	C367.312408,501.000000 359.624847,501.000000 351.468628,501.000000 
z"/>
<path fill="#278AC5" opacity="1.000000" stroke="none" 
	d="
M417.531738,1.000000 
	C419.262390,45.254280 411.422607,88.109573 397.647644,130.553101 
	C390.429199,130.606567 383.715942,130.237228 377.075745,129.509491 
	C391.838837,87.696899 397.744141,44.744839 399.000000,1.000000 
	C405.021149,1.000000 411.042297,1.000000 417.531738,1.000000 
z"/>
<path fill="#2A8EC7" opacity="1.000000" stroke="none" 
	d="
M398.531616,1.000000 
	C397.744141,44.744839 391.838837,87.696899 376.638184,129.601807 
	C370.375305,130.548248 364.623169,131.043930 358.549896,131.262573 
	C358.094666,129.126602 357.451050,127.131874 357.904724,125.429596 
	C362.769867,107.174789 368.843567,89.173027 372.536346,70.692345 
	C377.112854,47.788979 379.602173,24.485592 379.000000,1.000000 
	C385.354401,1.000000 391.708801,1.000000 398.531616,1.000000 
z"/>
<path fill="#2D93C9" opacity="1.000000" stroke="none" 
	d="
M378.532043,1.000000 
	C379.602173,24.485592 377.112854,47.788979 372.536346,70.692345 
	C368.843567,89.173027 362.769867,107.174789 357.904724,125.429596 
	C357.451050,127.131874 358.094666,129.126602 358.143951,131.405182 
	C350.428345,133.730148 342.797577,135.635468 335.137207,137.112579 
	C335.428619,135.075211 335.530029,133.382843 336.103394,131.869247 
	C346.199738,105.215874 354.055969,77.965462 357.076355,49.546871 
	C358.791626,33.407879 359.718231,17.185066 361.000000,1.000000 
	C366.688049,1.000000 372.376068,1.000000 378.532043,1.000000 
z"/>
<path fill="#329BCC" opacity="1.000000" stroke="none" 
	d="
M321.000000,1.000000 
	C324.362091,1.000000 327.724213,1.000000 331.523743,1.378147 
	C331.307678,12.827174 331.322052,23.988352 329.840240,34.947231 
	C327.752594,50.387081 325.183136,65.821266 321.690826,80.998108 
	C316.112518,105.240074 307.354248,128.412399 295.884857,150.548904 
	C294.552551,153.120224 294.694031,156.455124 293.960266,159.691818 
	C273.288391,176.227005 258.400909,196.617798 248.996750,222.589615 
	C246.673904,216.435928 244.892593,211.716904 243.440872,206.925629 
	C245.466797,205.311035 247.403702,203.959946 248.812134,202.188644 
	C252.324707,197.771042 255.572891,193.144211 258.969727,188.633408 
	C279.688904,161.119446 294.701294,130.651840 305.131622,97.951523 
	C310.934814,79.757950 315.532806,61.211300 317.240112,42.081474 
	C318.462524,28.384893 319.744568,14.693633 321.000000,1.000000 
z"/>
<path fill="#349DCD" opacity="1.000000" stroke="none" 
	d="
M320.539368,1.000000 
	C319.744568,14.693633 318.462524,28.384893 317.240112,42.081474 
	C315.532806,61.211300 310.934814,79.757950 305.131622,97.951523 
	C294.701294,130.651840 279.688904,161.119446 258.969727,188.633408 
	C255.572891,193.144211 252.324707,197.771042 248.812134,202.188644 
	C247.403702,203.959946 245.466797,205.311035 243.216476,206.655823 
	C241.382126,203.761353 240.101746,201.064468 238.821381,198.367584 
	C243.713699,191.500549 249.087219,184.921295 253.400894,177.708221 
	C263.193359,161.333878 273.278534,145.050949 281.733032,127.982109 
	C291.413574,108.438011 297.834137,87.526649 302.404510,66.162872 
	C306.929047,45.013290 309.419342,23.614347 309.000000,1.468566 
	C312.692902,1.000000 316.385834,1.000000 320.539368,1.000000 
z"/>
<path fill="#2F96CA" opacity="1.000000" stroke="none" 
	d="
M360.533142,1.000000 
	C359.718231,17.185066 358.791626,33.407879 357.076355,49.546871 
	C354.055969,77.965462 346.199738,105.215874 336.103394,131.869247 
	C335.530029,133.382843 335.428619,135.075211 334.846252,137.292572 
	C327.734955,140.640869 320.885040,143.380951 314.031952,145.721161 
	C314.503387,143.579971 314.820984,141.776779 315.479156,140.107864 
	C318.643829,132.083694 322.252106,124.216774 325.054443,116.070946 
	C331.804871,96.448761 337.154114,76.484940 340.412079,55.906727 
	C343.298401,37.675903 344.487457,19.386452 345.000000,1.000000 
	C350.022095,1.000000 355.044189,1.000000 360.533142,1.000000 
z"/>
<path fill="#3198CB" opacity="1.000000" stroke="none" 
	d="
M344.536804,1.000000 
	C344.487457,19.386452 343.298401,37.675903 340.412079,55.906727 
	C337.154114,76.484940 331.804871,96.448761 325.054443,116.070946 
	C322.252106,124.216774 318.643829,132.083694 315.479156,140.107864 
	C314.820984,141.776779 314.503387,143.579971 313.882812,146.039612 
	C307.208618,150.983948 300.680450,155.209976 294.152252,159.436005 
	C294.694031,156.455124 294.552551,153.120224 295.884857,150.548904 
	C307.354248,128.412399 316.112518,105.240074 321.690826,80.998108 
	C325.183136,65.821266 327.752594,50.387081 329.840240,34.947231 
	C331.322052,23.988352 331.307678,12.827174 331.980591,1.378147 
	C336.024536,1.000000 340.049103,1.000000 344.536804,1.000000 
z"/>
<path fill="#FEFFFF" opacity="1.000000" stroke="none" 
	d="
M293.960266,159.691833 
	C300.680450,155.209976 307.208618,150.983948 313.885925,146.439484 
	C320.885040,143.380951 327.734955,140.640869 334.875854,137.720795 
	C342.797577,135.635468 350.428345,133.730148 358.465057,131.682220 
	C364.623169,131.043930 370.375305,130.548248 376.565063,129.960236 
	C383.715942,130.237228 390.429199,130.606567 397.573029,130.912292 
	C406.712494,132.602203 415.421448,134.355728 424.518066,136.186295 
	C433.710938,139.754700 442.516144,143.246078 451.664429,146.799316 
	C454.948334,148.972412 457.889130,151.083633 461.095612,153.385590 
	C453.270203,169.067612 445.526062,184.613892 437.713867,200.125946 
	C437.450165,200.649536 436.501373,200.828110 435.336548,200.751923 
	C427.365540,197.146851 419.929871,193.957336 412.178101,190.514404 
	C405.921967,189.121185 399.981903,187.981384 393.669312,186.680450 
	C387.864899,186.712845 382.433075,186.906372 376.581726,187.048157 
	C368.775543,188.683853 361.388855,190.371277 353.631042,192.056335 
	C320.022034,202.952560 303.289490,237.986481 305.130920,262.435333 
	C306.674713,270.260742 308.273254,277.656250 309.893372,285.425262 
	C312.479340,290.575348 315.043732,295.351929 317.740723,300.452881 
	C321.883423,305.266479 325.893494,309.755707 330.055054,314.538208 
	C336.805634,318.859314 343.404694,322.887146 350.003754,326.914948 
	C358.380005,328.969818 366.756287,331.024658 375.566742,333.021820 
	C382.531372,333.167419 389.060852,333.434784 395.592865,333.534973 
	C397.557495,333.565125 399.529297,333.130035 401.812958,332.657135 
	C413.544373,330.676849 424.121582,326.719635 433.762787,320.356049 
	C435.568085,319.164551 437.135925,317.904724 438.481781,321.239471 
	C442.998566,330.168152 447.243011,338.856232 451.744812,347.771912 
	C454.902252,354.129303 457.802338,360.259064 461.008606,367.035919 
	C451.174988,374.484222 439.795502,379.171722 427.837830,383.538452 
	C419.320068,385.236298 411.085205,386.685547 402.427277,388.265198 
	C390.980652,388.917267 379.957153,389.438904 368.467590,390.011719 
	C356.935455,387.687378 345.869354,385.311890 334.413361,382.925537 
	C323.953033,377.885834 313.882568,372.856964 303.479248,367.694275 
	C294.093628,359.761353 285.040894,351.962158 275.722473,343.985107 
	C264.114838,330.414032 255.047638,315.650177 249.180710,299.187805 
	C245.104050,307.651367 241.847412,316.229492 237.124298,323.905243 
	C216.112778,358.052002 185.829788,378.527069 145.873001,384.053131 
	C139.958588,384.871124 133.952881,385.375732 127.986122,385.407410 
	C103.848511,385.535645 79.709618,385.422241 55.174797,385.225433 
	C54.775997,368.013153 54.773590,350.973511 54.690407,333.472107 
	C54.661053,315.985870 54.712475,298.961426 54.684982,281.475189 
	C54.659267,263.321167 54.712460,245.628922 54.687897,227.474594 
	C54.661716,208.654999 54.713299,190.297485 54.689682,171.477753 
	C54.614479,159.274155 54.614479,147.532776 54.614479,134.782791 
	C67.436020,134.782791 79.759178,134.782791 92.544556,134.697876 
	C104.031410,134.670319 115.056061,134.727692 126.542938,134.700989 
	C137.377899,135.797134 147.750641,136.977341 158.539948,138.153961 
	C168.758209,141.937271 178.559891,145.724167 188.688629,149.610413 
	C196.472687,155.047455 203.929688,160.385162 211.698898,165.841583 
	C215.637756,169.614868 219.264404,173.269455 223.155594,177.093918 
	C228.369034,184.157486 233.317932,191.051163 238.544098,198.156204 
	C240.101746,201.064468 241.382126,203.761353 242.886902,206.728058 
	C244.892593,211.716904 246.673904,216.435928 248.996750,222.589615 
	C258.400909,196.617798 273.288391,176.227005 293.960266,159.691833 
M190.239578,274.254608 
	C190.583374,272.842072 191.215195,271.431030 191.222321,270.016785 
	C191.257599,263.010742 191.127914,256.003845 191.153107,248.142334 
	C190.220673,238.019180 186.973587,228.675201 181.490646,219.390900 
	C175.480255,209.799805 168.317642,201.356567 157.707047,195.369781 
	C143.645981,186.881851 128.348495,184.832275 112.124870,186.202133 
	C112.124870,199.434326 112.124870,212.218811 111.991051,225.931824 
	C112.036781,236.956573 112.082512,247.981323 111.991890,259.933899 
	C112.038376,270.290283 112.084854,280.646667 111.990837,291.930664 
	C112.037308,298.954529 112.083778,305.978394 111.985962,313.929413 
	C111.985962,320.671844 111.985962,327.414276 111.985962,334.081207 
	C144.590714,336.553314 170.331070,323.285736 184.131165,295.317108 
	C187.190460,289.116821 187.992081,281.802582 190.239578,274.254608 
z"/>
<path fill="#217FC1" opacity="1.000000" stroke="none" 
	d="
M412.494202,190.767838 
	C419.929871,193.957336 427.365540,197.146851 434.968414,200.640778 
	C433.552673,202.704895 431.601349,204.251923 430.443726,206.257156 
	C418.825409,226.382080 408.286865,247.207672 395.529419,266.574615 
	C384.167236,283.823395 370.371399,299.466980 357.693207,315.852692 
	C355.075165,319.236298 352.649200,322.768524 350.069244,326.573608 
	C343.404694,322.887146 336.805634,318.859314 330.128021,314.175293 
	C331.408966,311.470123 332.615723,309.297913 334.152832,307.392151 
	C343.842407,295.378906 353.753052,283.541321 363.309387,271.423889 
	C377.655548,253.233002 389.698944,233.538055 400.573456,213.111481 
	C404.540375,205.660049 408.520233,198.215515 412.494202,190.767838 
z"/>
<path fill="#36A1CE" opacity="1.000000" stroke="none" 
	d="
M181.685623,220.018250 
	C186.973587,228.675201 190.220673,238.019180 190.731995,248.588379 
	C188.924652,249.546005 187.374863,249.811966 186.178543,250.608688 
	C177.890717,256.128204 169.889343,262.108154 161.392349,267.276703 
	C145.768082,276.780548 129.570892,285.212372 112.131332,291.003052 
	C112.084854,280.646667 112.038376,270.290283 112.449249,259.462311 
	C115.735748,258.093872 118.736206,257.543823 121.366478,256.244415 
	C139.696091,247.189285 157.413986,237.132767 173.420105,224.255569 
	C175.782532,222.354935 178.911377,221.406967 181.685623,220.018250 
z"/>
<path fill="#2382C2" opacity="1.000000" stroke="none" 
	d="
M412.178101,190.514404 
	C408.520233,198.215515 404.540375,205.660049 400.573456,213.111481 
	C389.698944,233.538055 377.655548,253.233002 363.309387,271.423889 
	C353.753052,283.541321 343.842407,295.378906 334.152832,307.392151 
	C332.615723,309.297913 331.408966,311.470123 329.976501,313.882019 
	C325.893494,309.755707 321.883423,305.266479 318.092468,300.357300 
	C320.744995,297.254242 323.291687,294.664459 325.592072,291.871796 
	C334.984497,280.469269 345.073578,269.539398 353.458435,257.432861 
	C364.900940,240.911407 375.267426,223.621536 385.580627,206.353806 
	C389.185425,200.318192 391.265503,193.371964 394.041870,186.841599 
	C399.981903,187.981384 405.921967,189.121185 412.178101,190.514404 
z"/>
<path fill="#3BA9D1" opacity="1.000000" stroke="none" 
	d="
M181.588135,219.704575 
	C178.911377,221.406967 175.782532,222.354935 173.420105,224.255569 
	C157.413986,237.132767 139.696091,247.189285 121.366478,256.244415 
	C118.736206,257.543823 115.735748,258.093872 112.517433,258.998413 
	C112.082512,247.981323 112.036781,236.956573 112.403023,225.395782 
	C129.181900,217.198288 144.055450,207.197708 158.122696,195.934189 
	C168.317642,201.356567 175.480255,209.799805 181.588135,219.704575 
z"/>
<path fill="#3198CB" opacity="1.000000" stroke="none" 
	d="
M189.833237,275.001251 
	C187.992081,281.802582 187.190460,289.116821 184.131165,295.317108 
	C170.331070,323.285736 144.590714,336.553314 111.985962,334.081207 
	C111.985962,327.414276 111.985962,320.671844 112.433167,313.441772 
	C115.723190,312.055084 118.649803,311.358948 121.395569,310.224915 
	C143.090179,301.264679 164.033234,290.862488 183.553070,277.722137 
	C185.413803,276.469543 187.729019,275.892120 189.833237,275.001251 
z"/>
<path fill="#2585C3" opacity="1.000000" stroke="none" 
	d="
M393.669312,186.680450 
	C391.265503,193.371964 389.185425,200.318192 385.580627,206.353806 
	C375.267426,223.621536 364.900940,240.911407 353.458435,257.432861 
	C345.073578,269.539398 334.984497,280.469269 325.592072,291.871796 
	C323.291687,294.664459 320.744995,297.254242 317.959839,300.032898 
	C315.043732,295.351929 312.479340,290.575348 310.191986,285.254242 
	C315.390320,279.350037 320.774292,274.339874 325.140198,268.560638 
	C335.409454,254.966995 345.824402,241.409744 354.984009,227.073380 
	C363.156799,214.281570 369.724976,200.464539 377.001221,187.099915 
	C382.433075,186.906372 387.864899,186.712845 393.669312,186.680450 
z"/>
<path fill="#2688C4" opacity="1.000000" stroke="none" 
	d="
M376.581726,187.048172 
	C369.724976,200.464539 363.156799,214.281570 354.984009,227.073380 
	C345.824402,241.409744 335.409454,254.966995 325.140198,268.560638 
	C320.774292,274.339874 315.390320,279.350037 310.170410,284.880737 
	C308.273254,277.656250 306.674713,270.260742 305.454834,262.357117 
	C306.518372,261.401978 307.410461,261.104858 307.857910,260.486145 
	C320.252014,243.347244 332.759583,226.286331 344.861023,208.942261 
	C348.499725,203.727219 350.987274,197.708984 354.002167,192.058685 
	C361.388855,190.371277 368.775543,188.683853 376.581726,187.048172 
z"/>
<path fill="#329BCC" opacity="1.000000" stroke="none" 
	d="
M190.036407,274.627930 
	C187.729019,275.892120 185.413803,276.469543 183.553070,277.722137 
	C164.033234,290.862488 143.090179,301.264679 121.395569,310.224915 
	C118.649803,311.358948 115.723190,312.055084 112.505310,312.978180 
	C112.083778,305.978394 112.037308,298.954529 112.061081,291.466858 
	C129.570892,285.212372 145.768082,276.780548 161.392349,267.276703 
	C169.889343,262.108154 177.890717,256.128204 186.178543,250.608688 
	C187.374863,249.811966 188.924652,249.546005 190.683624,249.015839 
	C191.127914,256.003845 191.257599,263.010742 191.222321,270.016785 
	C191.215195,271.431030 190.583374,272.842072 190.036407,274.627930 
z"/>
<path fill="#40B1D4" opacity="1.000000" stroke="none" 
	d="
M157.914871,195.651978 
	C144.055450,207.197708 129.181900,217.198288 112.469933,224.931519 
	C112.124870,212.218811 112.124870,199.434326 112.124870,186.202133 
	C128.348495,184.832275 143.645981,186.881851 157.914871,195.651978 
z"/>
<path fill="#2A8EC7" opacity="1.000000" stroke="none" 
	d="
M353.631042,192.056351 
	C350.987274,197.708984 348.499725,203.727219 344.861023,208.942261 
	C332.759583,226.286331 320.252014,243.347244 307.857910,260.486145 
	C307.410461,261.104858 306.518372,261.401978 305.509613,261.927216 
	C303.289490,237.986481 320.022034,202.952560 353.631042,192.056351 
z"/>
</svg>